<?xml version="1.0" standalone="no"?>
<!DOCTYPE svg PUBLIC "-//W3C//DTD SVG 20010904//EN"
 "http://www.w3.org/TR/2001/REC-SVG-20010904/DTD/svg10.dtd">
<svg version="1.0" xmlns="http://www.w3.org/2000/svg"
 width="700.000000pt" height="700.000000pt" viewBox="0 0 700.000000 700.000000"
 preserveAspectRatio="xMidYMid meet">
<metadata>
Created by potrace 1.14, written by Peter Selinger 2001-2017
</metadata>
<g transform="translate(0.000000,700.000000) scale(0.100000,-0.100000)"
fill="#000000" stroke="none">
<path d="M0 3500 l0 -3500 3500 0 3500 0 0 3500 0 3500 -3500 0 -3500 0 0
-3500z m1902 308 l3 -882 564 882 563 882 154 0 154 0 0 -1145 0 -1145 -155 0
-155 0 -2 877 -3 877 -560 -877 -560 -877 -152 0 -153 0 0 1145 0 1145 150 0
150 0 2 -882z m2479 227 c160 -357 294 -654 298 -658 4 -4 60 124 124 285 64
161 181 457 261 658 l144 365 176 3 175 2 -16 -37 c-184 -444 -817 -1922 -850
-1987 -81 -155 -194 -251 -343 -287 -61 -15 -296 -17 -309 -3 -5 5 -6 61 -3
125 l4 116 80 -5 c102 -6 174 10 221 49 43 36 101 130 152 249 l36 85 -377
815 c-207 448 -383 830 -390 848 l-14 32 170 -2 171 -3 290 -650z"/>
</g>
</svg>
